<?xml version="1.0" encoding="utf-8"?>
<!-- Generator: Adobe Illustrator 19.0.0, SVG Export Plug-In . SVG Version: 6.00 Build 0)  -->
<svg version="1.1" id="图层_1" xmlns="http://www.w3.org/2000/svg" xmlns:xlink="http://www.w3.org/1999/xlink" x="0px" y="0px"
	 viewBox="30 20 535.3 178.4"  width="100%" height="100%" preserveAspectRatio="xMinYMin meet" style="enable-background:new 60 20 535.3 178.4;" xml:space="preserve">
<!-- <svg version="1.1" id="图层_1" xmlns="http://www.w3.org/2000/svg" xmlns:xlink="http://www.w3.org/1999/xlink" x="0px" y="0px"
	 viewBox="0 0 595.3 198.4"  width="100%" height="100%" preserveAspectRatio="xMinYMin meet" style="enable-background:new 0 0 595.3 198.4;" xml:space="preserve"> -->
<style type="text/css">
	.st0{fill:#E8E8E8;}
</style>
<g id="XMLID_1_">
	<path id="XMLID_3_" class="st0" d="M118,81.2c-0.1-0.9-0.2-1.5-0.3-1.9s-0.3-0.6-0.5-0.8s-0.6-0.3-1.1-0.3l0.2-0.9h4.5l1.3,14
		c4-5.4,5.9-9.3,5.9-11.6c0-0.6-0.1-0.9-0.4-1.1s-0.6-0.3-1.2-0.4l0.2-0.9h4.5l0.5,0.9c-0.6,1.6-1.4,3.3-2.4,5.1s-2.2,3.7-3.6,5.7
		s-3,4.2-4.7,6.5c-1.3,1.7-2.4,3-3.3,3.9c-0.7,0.7-1.3,1.2-1.9,1.5s-1.1,0.6-1.7,0.7s-1.1,0.2-1.7,0.2c-0.3,0-0.7,0-1.1-0.1
		s-0.7-0.1-1-0.3l0.8-3.3h1.4c0,0.4,0.1,0.7,0.3,0.9s0.4,0.4,0.8,0.4c0.4,0,0.7,0,1-0.1s0.6-0.2,0.9-0.4s0.7-0.5,1.1-0.8
		s0.9-0.9,1.5-1.5s1.1-1.4,1.8-2.3L118,81.2z"/>
	<path id="XMLID_5_" class="st0" d="M134,77.4h5.5l-2.2,8.9c-0.2,0.7-0.3,1.3-0.4,2s-0.2,1.2-0.2,1.8c0,0.8,0.1,1.4,0.4,1.8
		s0.7,0.5,1.3,0.5c0.5,0,1-0.2,1.6-0.6s1.2-1,1.9-1.8s1.2-1.6,1.6-2.3s0.7-1.6,0.9-2.6l1.6-7.6h3l-2.7,12c-0.1,0.3-0.2,0.7-0.2,1.2
		s-0.1,0.9-0.1,1.3c0,0.5,0.1,0.8,0.4,1s0.8,0.3,1.5,0.4l-0.2,0.9h-5l1.1-4.4l-0.2-0.1c-1.1,1.6-2.2,2.8-3.3,3.6s-2.1,1.2-3.2,1.2
		c-1.1,0-2-0.3-2.6-0.9s-0.9-1.6-0.9-2.8c0-0.4,0-0.8,0.1-1.2s0.2-1,0.3-1.5l1.5-6.2c0.1-0.5,0.2-0.9,0.2-1.2s0.1-0.6,0.1-0.8
		c0-0.5-0.1-0.9-0.4-1.1s-0.8-0.3-1.5-0.4L134,77.4z"/>
	<path id="XMLID_7_" class="st0" d="M163.5,81.6c0-0.9-0.1-1.5-0.2-1.9s-0.3-0.7-0.6-0.9s-0.7-0.3-1.2-0.3c-1.2,0-2.2,0.5-3.2,1.4
		s-1.7,2.3-2.3,4s-0.9,3.4-0.9,5c0,0.5,0,1,0.1,1.4s0.2,0.8,0.5,1.1s0.5,0.6,0.9,0.7s0.8,0.3,1.4,0.3c1.1,0,2-0.2,2.8-0.6
		s1.6-1,2.5-1.9l1.1,1.1c-1.1,1.2-2.2,2.1-3.3,2.7s-2.3,0.8-3.6,0.8c-1.7,0-3-0.5-3.9-1.5s-1.3-2.5-1.3-4.4c0-1.3,0.2-2.6,0.7-4.1
		s1.2-2.8,2.1-4s2-2,3.2-2.5s2.5-0.8,3.9-0.8c0.9,0,1.8,0.1,2.5,0.2s1.3,0.2,1.9,0.4l-0.9,4H163.5z"/>
	<path id="XMLID_9_" class="st0" d="M182.1,94.2h-5.5l2.2-8.9c0.2-0.6,0.3-1.3,0.4-2s0.2-1.3,0.2-1.8c0-0.8-0.1-1.4-0.4-1.8
		s-0.8-0.5-1.4-0.5c-0.5,0-1,0.2-1.6,0.6s-1.2,1-1.8,1.8s-1.2,1.6-1.5,2.3s-0.7,1.6-0.9,2.7l-1.6,7.6h-3l4.5-20.1
		c0.1-0.6,0.2-1,0.3-1.3s0.1-0.5,0.1-0.7s0-0.4,0-0.6c0-0.5-0.1-0.8-0.4-1s-0.8-0.3-1.6-0.3l0.2-0.9l4.4-0.2h1l-3,12.2l0.2,0.1
		c1.1-1.5,2.2-2.5,3.1-3.2s2-1,3-1c1.1,0,2,0.3,2.6,0.9s0.9,1.6,0.9,2.8c0,0.8-0.1,1.7-0.4,2.7l-1.5,6.3c-0.1,0.5-0.2,0.9-0.2,1.2
		s-0.1,0.6-0.1,0.8c0,0.4,0.1,0.6,0.2,0.8s0.3,0.3,0.6,0.4s0.7,0.2,1.2,0.2L182.1,94.2z"/>
	<path id="XMLID_11_" class="st0" d="M199.5,78.2l1.6-1.2l1.1,0.3l-2.7,11.9c-0.2,0.7-0.3,1.2-0.3,1.6s-0.1,0.7-0.1,0.9
		c0,0.5,0.1,0.8,0.4,1s0.8,0.4,1.5,0.4l-0.2,0.9h-5l1.1-4.4l-0.2-0.1c-1.1,1.6-2.2,2.8-3.2,3.6s-2.1,1.1-3.2,1.1
		c-1.3,0-2.3-0.5-3-1.5s-1.1-2.3-1.1-4.1c0-1.1,0.1-2.3,0.4-3.4s0.6-2.2,1.2-3.2s1.1-1.9,1.9-2.7s1.6-1.4,2.5-1.8s2-0.7,3.1-0.7
		c0.7,0,1.4,0.1,2.1,0.3S198.8,77.8,199.5,78.2z M197.9,83.5c0.1-0.5,0.2-0.9,0.2-1.2s0.1-0.7,0.1-1.1c0-0.9-0.2-1.6-0.6-2
		s-1-0.6-1.9-0.6c-0.5,0-1,0.1-1.4,0.2s-0.9,0.4-1.4,0.8s-0.9,0.9-1.3,1.5s-0.8,1.3-1.1,2.2s-0.6,1.8-0.8,2.8s-0.3,1.9-0.3,2.9
		c0,1.2,0.2,2.1,0.5,2.7s0.9,0.9,1.7,0.9c0.4,0,0.7-0.1,1.1-0.2s0.8-0.5,1.3-0.9s1-1.1,1.6-1.9c0.6-0.8,1-1.6,1.3-2.3
		s0.6-1.7,0.8-2.7L197.9,83.5z"/>
	<path id="XMLID_14_" class="st0" d="M220.3,94.2h-5.5l2.2-8.9c0.1-0.6,0.3-1.2,0.4-1.9s0.2-1.3,0.2-1.9c0-0.8-0.1-1.4-0.4-1.8
		s-0.7-0.5-1.3-0.5c-0.5,0-1,0.2-1.6,0.6s-1.2,0.9-1.8,1.7s-1.1,1.5-1.6,2.3s-0.8,1.7-1,2.8l-1.6,7.6h-3l2.7-12
		c0.1-0.3,0.1-0.7,0.2-1.2s0.1-1,0.1-1.3c0-0.3,0-0.6-0.1-0.8s-0.3-0.3-0.5-0.4s-0.6-0.1-1.2-0.2l0.2-0.9l4-0.2h1l-1.2,4.6l0.2,0.1
		c1.1-1.6,2.3-2.8,3.3-3.6s2.1-1.2,3.2-1.2c1.1,0,2,0.3,2.6,0.9s0.9,1.6,0.9,2.8c0,0.4,0,0.9-0.1,1.4s-0.2,0.9-0.3,1.3l-1.5,6.3
		c-0.2,0.8-0.3,1.5-0.3,2c0,0.4,0.1,0.6,0.2,0.8s0.3,0.4,0.5,0.5s0.7,0.2,1.2,0.2L220.3,94.2z"/>
	<path id="XMLID_16_" class="st0" d="M224.8,95.7c-0.2,0.3-0.4,0.5-0.6,0.8s-0.3,0.5-0.3,0.8s-0.1,0.5-0.1,0.9
		c0,0.9,0.3,1.5,0.9,1.9s1.6,0.6,2.9,0.6c1.2,0,2.1-0.2,2.9-0.6s1.4-1,2-1.9s1-1.9,1.4-3.1s0.8-2.9,1.2-5l-0.2-0.1
		c-1.1,1.6-2.2,2.7-3.2,3.4s-2,1.1-3.1,1.1c-1.3,0-2.3-0.5-3-1.4s-1.1-2.3-1.1-4.1c0-1.3,0.2-2.6,0.5-3.8s0.8-2.4,1.4-3.4
		s1.3-1.9,2.1-2.5s1.6-1.2,2.4-1.5s1.7-0.5,2.7-0.5c0.7,0,1.4,0.1,2.1,0.3s1.3,0.5,2,0.9l1.6-1.2l1.1,0.3l-1.8,8.2
		c-0.1,0.6-0.3,1.2-0.4,2l-0.5,2.3c-0.6,2.8-1,4.7-1.3,5.7c-0.4,1.2-0.9,2.2-1.4,3c-0.5,0.7-1.1,1.4-1.8,1.9s-1.5,0.9-2.4,1.2
		s-2,0.4-3.2,0.4c-4.4,0-6.6-1.3-6.6-3.9c0-0.7,0.2-1.3,0.6-1.8s1-1.1,1.9-1.7L224.8,95.7z M229.9,92.4c0.6,0,1.2-0.2,1.8-0.6
		s1.2-1.1,1.9-2s1.2-1.7,1.6-2.5s0.7-1.8,1-3s0.4-2.3,0.4-3.1c0-0.9-0.2-1.6-0.6-2s-1-0.6-1.9-0.6c-0.5,0-1,0.1-1.4,0.2
		s-0.9,0.4-1.4,0.8s-0.9,0.9-1.3,1.5s-0.8,1.3-1.1,2.2s-0.6,1.8-0.8,2.8s-0.3,1.9-0.3,2.9c0,1.2,0.2,2.1,0.5,2.7
		S229.1,92.4,229.9,92.4z"/>
	<path id="XMLID_19_" class="st0" d="M246.1,90.1l-0.9,4.1h-3.3l0.9-4.1H246.1z"/>
	<path id="XMLID_21_" class="st0" d="M265.9,80.8v0.2c0,0.1,0,0.2,0,0.3c1-1.4,2-2.5,3-3.2s2.1-1,3.1-1c1.1,0,2,0.3,2.5,0.9
		s0.9,1.6,0.9,2.8c0,0.8-0.1,1.7-0.4,2.7l-1.5,6.3c-0.2,0.8-0.3,1.5-0.3,2c0,0.4,0.1,0.6,0.2,0.8s0.3,0.4,0.5,0.5s0.7,0.2,1.2,0.2
		l-0.2,0.9h-5.5l2.2-8.9c0.2-0.6,0.3-1.3,0.4-2s0.2-1.3,0.2-1.8c0-0.8-0.1-1.4-0.4-1.8s-0.8-0.5-1.4-0.5c-0.5,0-1,0.2-1.5,0.6
		s-1.2,0.9-1.8,1.7s-1.1,1.5-1.5,2.3s-0.7,1.7-0.9,2.8l-1.6,7.7h-3l2-8.9c0.2-1.1,0.4-1.9,0.5-2.4s0.1-1,0.1-1.3
		c0-0.8-0.1-1.4-0.4-1.8s-0.8-0.5-1.4-0.5c-0.5,0-1,0.2-1.6,0.6s-1.2,1-1.8,1.8s-1.1,1.6-1.5,2.3s-0.7,1.7-0.9,2.7l-1.6,7.6h-3
		l2.7-12c0.1-0.3,0.1-0.7,0.2-1.2s0.1-1,0.1-1.3c0-0.3,0-0.6-0.1-0.8s-0.3-0.3-0.5-0.4s-0.6-0.1-1.2-0.2l0.2-0.9l4-0.2h1l-1.2,4.6
		l0.2,0.1c1.1-1.6,2.2-2.8,3.2-3.6s2.1-1.2,3.2-1.2c1.1,0,2,0.3,2.6,1S265.9,79.6,265.9,80.8z"/>
	<path id="XMLID_23_" class="st0" d="M292.4,78.2l1.6-1.2l1.1,0.3l-2.7,11.9c-0.2,0.7-0.3,1.2-0.3,1.6s-0.1,0.7-0.1,0.9
		c0,0.5,0.1,0.8,0.4,1s0.8,0.4,1.5,0.4l-0.2,0.9h-5l1.1-4.4l-0.2-0.1c-1.1,1.6-2.2,2.8-3.2,3.6s-2.1,1.1-3.2,1.1
		c-1.3,0-2.3-0.5-3-1.5s-1.1-2.3-1.1-4.1c0-1.1,0.1-2.3,0.4-3.4s0.6-2.2,1.2-3.2s1.1-1.9,1.9-2.7s1.6-1.4,2.5-1.8s2-0.7,3.1-0.7
		c0.7,0,1.4,0.1,2.1,0.3S291.7,77.8,292.4,78.2z M290.9,83.5c0.1-0.5,0.2-0.9,0.2-1.2s0.1-0.7,0.1-1.1c0-0.9-0.2-1.6-0.6-2
		s-1-0.6-1.9-0.6c-0.5,0-1,0.1-1.4,0.2s-0.9,0.4-1.4,0.8s-0.9,0.9-1.3,1.5s-0.8,1.3-1.1,2.2s-0.6,1.8-0.8,2.8s-0.3,1.9-0.3,2.9
		c0,1.2,0.2,2.1,0.5,2.7s0.9,0.9,1.7,0.9c0.4,0,0.7-0.1,1.1-0.2s0.8-0.5,1.3-0.9s1-1.1,1.6-1.9c0.6-0.8,1-1.6,1.3-2.3
		s0.6-1.7,0.8-2.7L290.9,83.5z"/>
	<path id="XMLID_26_" class="st0" d="M302.2,89.8c-0.1,0.6-0.2,1-0.2,1.3s-0.1,0.5-0.1,0.7c0,0.4,0.1,0.6,0.2,0.8s0.3,0.4,0.5,0.5
		s0.7,0.2,1.2,0.2l-0.2,0.9h-5.4l2.7-11.8c0.2-0.7,0.3-1.2,0.3-1.6s0.1-0.7,0.1-1c0-0.3,0-0.6-0.1-0.8s-0.3-0.3-0.5-0.4
		s-0.6-0.2-1.2-0.2l0.2-0.9l4.3-0.2h1L302.2,89.8z M306.5,70.5l-0.8,3.4h-3.1l0.8-3.4H306.5z"/>
	<path id="XMLID_29_" class="st0" d="M315.3,69h1l-4.6,20.7c-0.1,0.6-0.2,1-0.2,1.3s-0.1,0.5-0.1,0.7c0,0.4,0.1,0.6,0.2,0.8
		s0.3,0.4,0.5,0.5s0.7,0.2,1.2,0.2l-0.1,0.9h-5.5l4.5-20.2c0.1-0.5,0.2-0.9,0.2-1.2s0.1-0.5,0.1-0.7s0-0.4,0-0.6
		c0-0.4-0.1-0.6-0.2-0.8s-0.3-0.3-0.6-0.4s-0.7-0.1-1.3-0.2l0.2-0.9L315.3,69z"/>
	<path id="XMLID_31_" class="st0" d="M320.4,90.1l-0.9,4.1h-3.3l0.9-4.1H320.4z"/>
	<path id="XMLID_33_" class="st0" d="M327.3,93.3l-1.6,1.1l-1.1-0.3l4.6-20.1c0.1-0.3,0.2-0.7,0.3-1.3s0.1-1,0.1-1.3
		c0-0.5-0.1-0.8-0.4-1s-0.8-0.3-1.6-0.3l0.2-0.9l4.4-0.2h1l-3.1,12.3l0.2,0.1c1.1-1.5,2.2-2.6,3.2-3.3s2-1,3-1c1.3,0,2.3,0.5,3,1.5
		s1.1,2.3,1.1,4.1c0,1.3-0.2,2.5-0.5,3.8s-0.8,2.4-1.4,3.5s-1.3,1.9-2.1,2.5s-1.6,1.2-2.4,1.5s-1.7,0.5-2.6,0.5
		C329.9,94.5,328.5,94.1,327.3,93.3z M328.9,88.1c-0.1,0.5-0.2,1-0.2,1.3s0,0.7,0,1c0,0.9,0.2,1.6,0.6,2s1.1,0.6,2,0.6
		c0.6,0,1.2-0.1,1.7-0.4s1-0.6,1.4-1s0.9-1,1.2-1.6s0.7-1.4,1-2.2s0.5-1.7,0.6-2.6s0.2-1.7,0.2-2.5c0-1.2-0.2-2.1-0.5-2.7
		s-0.9-0.9-1.7-0.9c-0.6,0-1.1,0.2-1.7,0.5s-1.2,0.9-1.8,1.8s-1.2,1.7-1.6,2.5s-0.8,2-1.1,3.3L328.9,88.1z"/>
	<path id="XMLID_36_" class="st0" d="M358.6,94.2H353l2.2-8.9c0.1-0.6,0.3-1.2,0.4-1.9s0.2-1.3,0.2-1.9c0-0.8-0.1-1.4-0.4-1.8
		s-0.7-0.5-1.3-0.5c-0.5,0-1,0.2-1.6,0.6s-1.2,0.9-1.8,1.7s-1.1,1.5-1.6,2.3s-0.8,1.7-1,2.8l-1.6,7.6h-3l2.7-12
		c0.1-0.3,0.1-0.7,0.2-1.2s0.1-1,0.1-1.3c0-0.3,0-0.6-0.1-0.8s-0.3-0.3-0.5-0.4s-0.6-0.1-1.2-0.2l0.2-0.9l4-0.2h1l-1.2,4.6l0.2,0.1
		c1.1-1.6,2.3-2.8,3.3-3.6s2.1-1.2,3.2-1.2c1.1,0,2,0.3,2.6,0.9s0.9,1.6,0.9,2.8c0,0.4,0,0.9-0.1,1.4s-0.2,0.9-0.3,1.3l-1.5,6.3
		c-0.2,0.8-0.3,1.5-0.3,2c0,0.4,0.1,0.6,0.2,0.8s0.3,0.4,0.5,0.5s0.7,0.2,1.2,0.2L358.6,94.2z"/>
	<path id="XMLID_38_" class="st0" d="M363.9,77.4h5.5l-2.2,8.9c-0.2,0.7-0.3,1.3-0.4,2s-0.2,1.2-0.2,1.8c0,0.8,0.1,1.4,0.4,1.8
		s0.7,0.5,1.3,0.5c0.5,0,1-0.2,1.6-0.6s1.2-1,1.9-1.8s1.2-1.6,1.6-2.3s0.7-1.6,0.9-2.6l1.6-7.6h3l-2.7,12c-0.1,0.3-0.2,0.7-0.2,1.2
		s-0.1,0.9-0.1,1.3c0,0.5,0.1,0.8,0.4,1s0.8,0.3,1.5,0.4l-0.2,0.9h-5l1.1-4.4l-0.2-0.1c-1.1,1.6-2.2,2.8-3.3,3.6s-2.1,1.2-3.2,1.2
		c-1.1,0-2-0.3-2.6-0.9s-0.9-1.6-0.9-2.8c0-0.4,0-0.8,0.1-1.2s0.2-1,0.3-1.5l1.5-6.2c0.1-0.5,0.2-0.9,0.2-1.2s0.1-0.6,0.1-0.8
		c0-0.5-0.1-0.9-0.4-1.1s-0.8-0.3-1.5-0.4L363.9,77.4z"/>
	<path id="XMLID_40_" class="st0" d="M384.8,90.1l-0.9,4.1h-3.3l0.9-4.1H384.8z"/>
	<path id="XMLID_42_" class="st0" d="M402,90.7c-0.9,0.9-1.7,1.7-2.5,2.3s-1.6,0.9-2.4,1.2s-1.7,0.4-2.6,0.4c-0.9,0-1.7-0.1-2.4-0.4
		s-1.2-0.7-1.7-1.2s-0.8-1.1-1-1.9s-0.3-1.5-0.3-2.3c0-1.3,0.2-2.6,0.7-4s1.1-2.7,2-3.9s2-2,3.3-2.7s2.6-0.9,4.1-0.9
		c1.4,0,2.5,0.3,3.2,0.9s1.1,1.5,1.1,2.7c0,2-0.9,3.5-2.8,4.5s-4.6,1.5-8.3,1.5c-0.1,0.7-0.2,1.5-0.2,2.3c0,1.2,0.2,2.1,0.7,2.7
		s1.3,0.8,2.4,0.8c1.1,0,2.1-0.2,2.9-0.7s1.8-1.2,2.8-2.2L402,90.7z M392.6,85.1c1.1,0,2-0.1,2.8-0.2s1.5-0.3,2.1-0.5
		s1.1-0.4,1.5-0.7s0.7-0.6,0.9-0.9s0.4-0.7,0.5-1s0.1-0.7,0.1-1.1c0-0.7-0.2-1.3-0.5-1.7s-0.8-0.6-1.5-0.6c-0.8,0-1.6,0.3-2.4,0.9
		s-1.5,1.4-2.1,2.4S393,83.9,392.6,85.1z"/>
	<path id="XMLID_45_" class="st0" d="M419.4,74c0.1-0.4,0.2-0.8,0.2-1.3s0.1-0.9,0.1-1.2s-0.1-0.6-0.2-0.8s-0.3-0.3-0.6-0.4
		s-0.7-0.1-1.3-0.2l0.2-0.9l4.4-0.2h1l-4.6,20.3c-0.2,0.7-0.3,1.3-0.3,1.7s-0.1,0.7-0.1,0.9c0,0.5,0.1,0.8,0.4,1s0.8,0.4,1.5,0.4
		l-0.2,0.9h-5l1.1-4.4l-0.2-0.1c-1.1,1.6-2.2,2.8-3.2,3.6s-2.1,1.1-3.2,1.1c-1.3,0-2.3-0.5-3-1.5s-1.1-2.3-1.1-4.1
		c0-1.1,0.1-2.3,0.4-3.4s0.6-2.2,1.2-3.2s1.1-1.9,1.9-2.7s1.6-1.4,2.5-1.8s2-0.7,3.1-0.7c0.7,0,1.4,0.1,2,0.2s1.2,0.4,1.9,0.8
		L419.4,74z M417.3,83.5c0.2-0.8,0.3-1.6,0.3-2.4c0-0.9-0.2-1.6-0.6-2s-1-0.6-1.9-0.6c-0.5,0-1,0.1-1.4,0.2s-0.9,0.4-1.4,0.8
		s-0.9,0.9-1.3,1.5s-0.8,1.3-1.1,2.2s-0.6,1.8-0.8,2.8s-0.3,1.9-0.3,2.9c0,1.2,0.2,2.1,0.5,2.7s0.9,0.9,1.7,0.9
		c0.4,0,0.7-0.1,1.1-0.2s0.8-0.5,1.3-0.9s1-1.1,1.6-1.9c0.6-0.8,1-1.6,1.3-2.3s0.6-1.7,0.8-2.7L417.3,83.5z"/>
	<path id="XMLID_48_" class="st0" d="M425.7,77.4h5.5l-2.2,8.9c-0.2,0.7-0.3,1.3-0.4,2s-0.2,1.2-0.2,1.8c0,0.8,0.1,1.4,0.4,1.8
		s0.7,0.5,1.3,0.5c0.5,0,1-0.2,1.6-0.6s1.2-1,1.9-1.8s1.2-1.6,1.6-2.3s0.7-1.6,0.9-2.6l1.6-7.6h3l-2.7,12c-0.1,0.3-0.2,0.7-0.2,1.2
		s-0.1,0.9-0.1,1.3c0,0.5,0.1,0.8,0.4,1s0.8,0.3,1.5,0.4l-0.2,0.9h-5l1.1-4.4l-0.2-0.1c-1.1,1.6-2.2,2.8-3.3,3.6s-2.1,1.2-3.2,1.2
		c-1.1,0-2-0.3-2.6-0.9s-0.9-1.6-0.9-2.8c0-0.4,0-0.8,0.1-1.2s0.2-1,0.3-1.5l1.5-6.2c0.1-0.5,0.2-0.9,0.2-1.2s0.1-0.6,0.1-0.8
		c0-0.5-0.1-0.9-0.4-1.1s-0.8-0.3-1.5-0.4L425.7,77.4z"/>
	<path id="XMLID_50_" class="st0" d="M446.6,90.1l-0.9,4.1h-3.3l0.9-4.1H446.6z"/>
	<path id="XMLID_52_" class="st0" d="M462.4,81.6c0-0.9-0.1-1.5-0.2-1.9s-0.3-0.7-0.6-0.9s-0.7-0.3-1.2-0.3c-1.2,0-2.2,0.5-3.2,1.4
		s-1.7,2.3-2.3,4s-0.9,3.4-0.9,5c0,0.5,0,1,0.1,1.4s0.2,0.8,0.5,1.1s0.5,0.6,0.9,0.7s0.8,0.3,1.4,0.3c1.1,0,2-0.2,2.8-0.6
		s1.6-1,2.5-1.9l1.1,1.1c-1.1,1.2-2.2,2.1-3.3,2.7s-2.3,0.8-3.6,0.8c-1.7,0-3-0.5-3.9-1.5s-1.3-2.5-1.3-4.4c0-1.3,0.2-2.6,0.7-4.1
		s1.2-2.8,2.1-4s2-2,3.2-2.5s2.5-0.8,3.9-0.8c0.9,0,1.8,0.1,2.5,0.2s1.3,0.2,1.9,0.4l-0.9,4H462.4z"/>
	<path id="XMLID_54_" class="st0" d="M481.6,94.2h-5.5l2.2-8.9c0.1-0.6,0.3-1.2,0.4-1.9s0.2-1.3,0.2-1.9c0-0.8-0.1-1.4-0.4-1.8
		s-0.7-0.5-1.3-0.5c-0.5,0-1,0.2-1.6,0.6s-1.2,0.9-1.8,1.7s-1.1,1.5-1.6,2.3s-0.8,1.7-1,2.8l-1.6,7.6h-3l2.7-12
		c0.1-0.3,0.1-0.7,0.2-1.2s0.1-1,0.1-1.3c0-0.3,0-0.6-0.1-0.8s-0.3-0.3-0.5-0.4s-0.6-0.1-1.2-0.2l0.2-0.9l4-0.2h1l-1.2,4.6l0.2,0.1
		c1.1-1.6,2.3-2.8,3.3-3.6s2.1-1.2,3.2-1.2c1.1,0,2,0.3,2.6,0.9s0.9,1.6,0.9,2.8c0,0.4,0,0.9-0.1,1.4s-0.2,0.9-0.3,1.3l-1.5,6.3
		c-0.2,0.8-0.3,1.5-0.3,2c0,0.4,0.1,0.6,0.2,0.8s0.3,0.4,0.5,0.5s0.7,0.2,1.2,0.2L481.6,94.2z"/>
</g>
<g id="XMLID_2_">
</g>
<g id="XMLID_56_">
</g>
<g id="XMLID_57_">
</g>
<g id="XMLID_58_">
</g>
<g id="XMLID_59_">
</g>
<g id="XMLID_60_">
</g>
</svg>
