<?xml version="1.0" encoding="utf-8"?>
<!-- Generator: Adobe Illustrator 19.0.0, SVG Export Plug-In . SVG Version: 6.00 Build 0)  -->
<svg version="1.1" id="图层_1" xmlns="http://www.w3.org/2000/svg" xmlns:xlink="http://www.w3.org/1999/xlink" x="0px" y="0px"
	 viewBox="0 0 595.3 198.4" style="enable-background:new 0 0 595.3 198.4;" xml:space="preserve">
<style type="text/css">
	.st0{fill:#E8E8E8;}
</style>
<g id="XMLID_1_">
	<path id="XMLID_3_" class="st0" d="M49.9,89.2c-0.2-1.2-0.3-2-0.4-2.5s-0.4-0.8-0.7-1.1s-0.8-0.4-1.5-0.4l0.3-1.1h6l1.8,18.6
		c5.3-7.2,7.9-12.4,7.9-15.5c0-0.7-0.2-1.2-0.5-1.5s-0.8-0.4-1.6-0.5l0.2-1.1h6l0.6,1.2c-0.8,2.2-1.9,4.4-3.2,6.8s-2.9,4.9-4.7,7.6
		c-1.9,2.8-3.9,5.6-6.2,8.6c-1.8,2.3-3.2,4-4.4,5.2c-0.9,0.9-1.8,1.6-2.5,2s-1.5,0.8-2.3,1s-1.5,0.3-2.3,0.3c-0.4,0-0.9,0-1.4-0.1
		s-1-0.2-1.4-0.3l1-4.4h1.8c0,0.5,0.1,1,0.4,1.3s0.6,0.5,1,0.5c0.5,0,0.9-0.1,1.3-0.2s0.7-0.3,1.1-0.5s0.9-0.6,1.5-1.1
		s1.2-1.2,1.9-2.1s1.5-1.9,2.4-3.1L49.9,89.2z"/>
	<path id="XMLID_5_" class="st0" d="M71.2,84.1h7.4l-3,11.9c-0.2,0.9-0.4,1.7-0.6,2.6s-0.2,1.7-0.2,2.4c0,1.1,0.2,1.9,0.6,2.4
		s1,0.7,1.8,0.7c0.7,0,1.4-0.3,2.2-0.8s1.6-1.3,2.5-2.4c0.9-1.1,1.6-2.1,2.1-3.1s0.9-2.2,1.2-3.5l2.1-10.2h4.1l-3.6,16
		c-0.1,0.4-0.2,1-0.3,1.7s-0.2,1.3-0.2,1.7c0,0.7,0.2,1.1,0.6,1.4s1.1,0.4,2.1,0.5l-0.3,1.1h-6.7l1.5-5.9l-0.3-0.1
		c-1.5,2.2-3,3.8-4.4,4.8s-2.8,1.6-4.3,1.6c-1.5,0-2.7-0.4-3.4-1.3s-1.2-2.1-1.2-3.7c0-0.5,0-1,0.1-1.7c0.1-0.6,0.2-1.3,0.4-2l2-8.3
		c0.2-0.7,0.3-1.2,0.3-1.6s0.1-0.8,0.1-1c0-0.7-0.2-1.2-0.6-1.5s-1-0.5-2-0.5L71.2,84.1z"/>
	<path id="XMLID_7_" class="st0" d="M110.5,89.7c0-1.2-0.1-2-0.3-2.6s-0.4-0.9-0.8-1.2s-0.9-0.4-1.6-0.4c-1.6,0-3,0.6-4.3,1.9
		s-2.3,3-3.1,5.3s-1.2,4.5-1.2,6.6c0,0.7,0.1,1.3,0.2,1.9s0.3,1.1,0.6,1.5s0.7,0.8,1.1,1s1.1,0.4,1.8,0.4c1.4,0,2.7-0.3,3.7-0.8
		s2.1-1.4,3.3-2.5l1.4,1.4c-1.5,1.6-2.9,2.8-4.4,3.6s-3.1,1.1-4.8,1.1c-2.3,0-4-0.7-5.2-2s-1.8-3.3-1.8-5.9c0-1.7,0.3-3.5,0.9-5.5
		s1.5-3.8,2.7-5.3s2.6-2.6,4.2-3.4s3.3-1.1,5.2-1.1c1.3,0,2.3,0.1,3.3,0.2s1.8,0.3,2.5,0.5l-1.1,5.3H110.5z"/>
	<path id="XMLID_9_" class="st0" d="M135.4,106.5H128l3-11.9c0.2-0.9,0.4-1.7,0.6-2.6s0.2-1.7,0.2-2.4c0-1.1-0.2-1.9-0.6-2.4
		s-1-0.7-1.9-0.7c-0.6,0-1.3,0.3-2.1,0.8s-1.6,1.3-2.4,2.4s-1.5,2.1-2.1,3.1s-0.9,2.2-1.2,3.6l-2.1,10.1h-4.1l6-26.8
		c0.2-0.8,0.3-1.3,0.4-1.7s0.1-0.7,0.2-1s0-0.6,0-0.8c0-0.7-0.2-1.1-0.6-1.4s-1.1-0.4-2.1-0.4l0.3-1.2l5.9-0.2h1.4l-4,16.2l0.3,0.1
		c1.5-2,2.9-3.4,4.2-4.3s2.7-1.3,4.1-1.3c1.5,0,2.7,0.4,3.4,1.3s1.2,2.1,1.2,3.7c0,1-0.2,2.2-0.5,3.6l-2,8.3
		c-0.2,0.7-0.3,1.2-0.3,1.6s-0.1,0.8-0.1,1.1c0,0.5,0.1,0.9,0.2,1.1s0.4,0.5,0.8,0.6s0.9,0.2,1.6,0.3L135.4,106.5z"/>
	<path id="XMLID_11_" class="st0" d="M158.5,85.2l2.2-1.5l1.5,0.4l-3.6,15.9c-0.2,0.9-0.4,1.7-0.4,2.2s-0.1,0.9-0.1,1.3
		c0,0.6,0.2,1.1,0.5,1.4s1,0.5,2.1,0.6l-0.2,1.1h-6.7l1.5-5.9l-0.3-0.1c-1.5,2.2-2.9,3.8-4.3,4.8s-2.8,1.5-4.3,1.5
		c-1.7,0-3.1-0.6-4-1.9s-1.4-3.1-1.4-5.5c0-1.5,0.2-3,0.5-4.5s0.9-2.9,1.6-4.3s1.5-2.5,2.5-3.6s2.1-1.9,3.4-2.5s2.7-0.9,4.2-0.9
		c1,0,1.9,0.1,2.8,0.3S157.6,84.6,158.5,85.2z M156.4,92.2c0.1-0.6,0.2-1.2,0.3-1.7s0.1-1,0.1-1.5c0-1.2-0.3-2.1-0.8-2.7
		s-1.4-0.8-2.6-0.8c-0.7,0-1.3,0.1-1.9,0.3s-1.2,0.6-1.8,1.1s-1.2,1.1-1.7,1.9s-1.1,1.8-1.5,2.9s-0.8,2.4-1.1,3.7s-0.4,2.6-0.4,3.8
		c0,1.6,0.2,2.8,0.7,3.6s1.2,1.2,2.2,1.2c0.5,0,1-0.1,1.5-0.3s1.1-0.6,1.7-1.2s1.4-1.4,2.2-2.6c0.7-1,1.3-2.1,1.7-3.1
		s0.8-2.2,1.1-3.6L156.4,92.2z"/>
	<path id="XMLID_14_" class="st0" d="M186.3,106.5h-7.4l3-11.9c0.2-0.8,0.4-1.6,0.6-2.5s0.3-1.8,0.3-2.5c0-1.1-0.2-1.9-0.6-2.4
		s-1-0.7-1.8-0.7c-0.7,0-1.4,0.3-2.1,0.8s-1.6,1.3-2.4,2.3s-1.5,2-2.1,3.1s-1,2.3-1.3,3.8l-2.1,10.1h-4.1l3.6-16
		c0.1-0.4,0.2-0.9,0.3-1.6s0.2-1.3,0.2-1.8c0-0.4-0.1-0.8-0.2-1s-0.4-0.4-0.7-0.5s-0.9-0.2-1.6-0.2l0.3-1.2l5.3-0.2h1.3l-1.6,6.1
		l0.3,0.1c1.5-2.2,3-3.8,4.4-4.8s2.8-1.6,4.3-1.6c1.5,0,2.7,0.4,3.4,1.3s1.2,2.1,1.2,3.7c0,0.6-0.1,1.2-0.2,1.8s-0.2,1.3-0.3,1.8
		l-2,8.3c-0.3,1.1-0.4,2-0.4,2.7c0,0.5,0.1,0.8,0.2,1.1s0.4,0.5,0.7,0.6s0.9,0.3,1.6,0.3L186.3,106.5z"/>
	<path id="XMLID_16_" class="st0" d="M192.3,108.5c-0.3,0.4-0.5,0.7-0.8,1.1s-0.3,0.7-0.4,1s-0.1,0.7-0.1,1.2c0,1.2,0.4,2,1.3,2.6
		s2.1,0.8,3.8,0.8c1.5,0,2.8-0.3,3.9-0.8s1.9-1.4,2.6-2.5s1.3-2.5,1.9-4.2s1.1-3.9,1.7-6.7l-0.3-0.1c-1.5,2.1-2.9,3.6-4.2,4.5
		s-2.7,1.4-4.2,1.4c-1.7,0-3-0.6-4-1.9s-1.4-3.1-1.4-5.5c0-1.7,0.2-3.4,0.7-5.1s1.1-3.2,1.9-4.6s1.7-2.5,2.8-3.4s2.1-1.6,3.2-2
		s2.3-0.7,3.6-0.7c1,0,1.9,0.1,2.8,0.4s1.8,0.6,2.6,1.2l2.2-1.5l1.5,0.4l-2.4,11c-0.2,0.8-0.4,1.7-0.5,2.6l-0.6,3.1
		c-0.7,3.7-1.3,6.2-1.8,7.6c-0.5,1.6-1.2,3-1.9,4c-0.7,1-1.5,1.8-2.4,2.5s-2,1.2-3.2,1.5s-2.6,0.5-4.3,0.5c-5.9,0-8.9-1.7-8.9-5.2
		c0-0.9,0.3-1.7,0.8-2.4s1.4-1.5,2.6-2.3L192.3,108.5z M199,104.1c0.8,0,1.6-0.3,2.4-0.8s1.6-1.4,2.5-2.6c0.9-1.2,1.6-2.3,2.1-3.4
		s0.9-2.4,1.3-4s0.5-3,0.5-4.2c0-1.2-0.3-2.1-0.8-2.7s-1.4-0.8-2.6-0.8c-0.7,0-1.3,0.1-1.9,0.3s-1.2,0.6-1.8,1.1s-1.2,1.1-1.7,1.9
		s-1.1,1.8-1.5,2.9s-0.8,2.4-1.1,3.7s-0.4,2.6-0.4,3.8c0,1.6,0.2,2.8,0.7,3.6S198,104.1,199,104.1z"/>
	<path id="XMLID_19_" class="st0" d="M241,96.6l-0.3,0c-1.3,2-2.6,3.4-3.7,4.3c-1.2,0.9-2.4,1.4-3.6,1.4c-1,0-1.9-0.3-2.6-0.8
		s-1.3-1.3-1.7-2.2c-0.4-1-0.6-2.1-0.6-3.4c0-1.3,0.2-2.5,0.5-3.8s0.8-2.5,1.4-3.7s1.3-2.2,2.2-3.1s1.8-1.6,2.9-2.1s2.3-0.8,3.6-0.8
		c0.9,0,1.8,0.1,2.5,0.3s1.5,0.5,2.1,0.9l1.8-1.3l1.5,0.4l-2.6,11.7c-0.2,0.7-0.3,1.3-0.3,1.7s-0.1,0.9-0.1,1.3
		c0,1.8,0.8,2.7,2.3,2.7c1.1,0,2.1-0.4,3-1.3s1.5-2.1,2-3.7s0.7-3.3,0.7-5.2c0-2.9-0.5-5.4-1.4-7.4s-2.4-3.5-4.2-4.6
		s-4.1-1.5-6.8-1.5c-3.3,0-6.2,0.7-8.7,2.2s-4.4,3.6-5.7,6.3s-2,5.8-2,9.3c0,3,0.5,5.6,1.6,7.6c1,2,2.6,3.6,4.5,4.6s4.4,1.5,7.1,1.5
		c1.3,0,2.6-0.1,3.7-0.3s2.3-0.5,3.6-0.9l0.6,2.1c-1,0.4-2.2,0.7-3.6,0.9s-2.8,0.3-4.3,0.3c-3.9,0-7.1-0.6-9.7-1.9s-4.4-3.1-5.6-5.5
		s-1.8-5.3-1.8-8.8c0-2.7,0.5-5.3,1.4-7.7s2.3-4.5,4.1-6.4s4-3.3,6.4-4.2s5.2-1.5,8.2-1.5c2.9,0,5.3,0.4,7.4,1.2s3.8,1.9,5.1,3.3
		s2.2,3,2.8,4.7s0.9,3.6,0.9,5.7c0,2.6-0.4,4.9-1.2,6.9s-1.9,3.6-3.3,4.7c-1.4,1.1-3.1,1.7-5,1.7c-0.7,0-1.3-0.1-1.9-0.2
		s-1.1-0.4-1.6-0.8s-0.8-0.8-1.1-1.4c-0.3-0.6-0.4-1.3-0.4-2.1C240.9,97.3,240.9,96.9,241,96.6z M241.8,89.6c0.1-0.6,0.2-1,0.2-1.5
		s0.1-0.8,0.1-1.2c0-1-0.2-1.7-0.6-2.2s-1.1-0.7-2.1-0.7c-0.5,0-1.1,0.1-1.6,0.3s-1,0.5-1.5,0.9s-1,1-1.5,1.6s-0.9,1.5-1.3,2.4
		s-0.7,2-0.9,3.1s-0.3,2.2-0.3,3.2c0,1.3,0.2,2.3,0.5,3s1,1,1.8,1c0.7,0,1.3-0.2,2-0.7s1.3-1.2,2.1-2.1s1.3-1.9,1.8-2.9
		s0.8-2.1,1.1-3.5L241.8,89.6z"/>
	<path id="XMLID_22_" class="st0" d="M279.9,88.7V89c0,0.1,0,0.2,0,0.4c1.4-1.9,2.7-3.3,4.1-4.3s2.7-1.4,4.2-1.4
		c1.5,0,2.6,0.4,3.4,1.3s1.2,2.1,1.2,3.7c0,1-0.2,2.2-0.5,3.6l-2,8.3c-0.3,1.1-0.4,2-0.4,2.7c0,0.5,0.1,0.8,0.2,1.1s0.4,0.5,0.7,0.6
		s0.9,0.3,1.6,0.3l-0.2,1.1h-7.4l3-11.9c0.2-0.9,0.4-1.7,0.6-2.6s0.2-1.7,0.2-2.4c0-1.1-0.2-1.9-0.6-2.4s-1-0.7-1.9-0.7
		c-0.6,0-1.3,0.3-2.1,0.8s-1.6,1.3-2.4,2.3s-1.5,2.1-2,3.1s-0.9,2.2-1.3,3.7l-2.1,10.2h-4.1l2.7-11.9c0.3-1.5,0.6-2.5,0.7-3.2
		s0.2-1.3,0.2-1.8c0-1.1-0.2-1.9-0.6-2.4s-1-0.7-1.9-0.7c-0.6,0-1.3,0.3-2.1,0.8s-1.6,1.3-2.4,2.4s-1.5,2.1-2,3.1s-0.9,2.2-1.2,3.6
		l-2.1,10.1h-4.1l3.6-16c0.1-0.4,0.2-0.9,0.3-1.6s0.2-1.3,0.2-1.8c0-0.4-0.1-0.8-0.2-1s-0.4-0.4-0.7-0.5s-0.9-0.2-1.6-0.2l0.3-1.2
		l5.3-0.2h1.3l-1.5,6.1l0.3,0.1c1.4-2.1,2.9-3.7,4.3-4.8s2.9-1.6,4.3-1.6c1.5,0,2.6,0.4,3.4,1.3S279.9,87.1,279.9,88.7z"/>
	<path id="XMLID_24_" class="st0" d="M315.4,85.2l2.2-1.5l1.5,0.4l-3.6,15.9c-0.2,0.9-0.4,1.7-0.4,2.2s-0.1,0.9-0.1,1.3
		c0,0.6,0.2,1.1,0.5,1.4s1,0.5,2.1,0.6l-0.2,1.1h-6.7l1.5-5.9l-0.3-0.1c-1.5,2.2-2.9,3.8-4.3,4.8s-2.8,1.5-4.3,1.5
		c-1.7,0-3.1-0.6-4-1.9s-1.4-3.1-1.4-5.5c0-1.5,0.2-3,0.5-4.5s0.9-2.9,1.6-4.3s1.5-2.5,2.5-3.6s2.1-1.9,3.4-2.5s2.7-0.9,4.2-0.9
		c1,0,1.9,0.1,2.8,0.3S314.4,84.6,315.4,85.2z M313.3,92.2c0.1-0.6,0.2-1.2,0.3-1.7s0.1-1,0.1-1.5c0-1.2-0.3-2.1-0.8-2.7
		s-1.4-0.8-2.6-0.8c-0.7,0-1.3,0.1-1.9,0.3s-1.2,0.6-1.8,1.1s-1.2,1.1-1.7,1.9s-1.1,1.8-1.5,2.9s-0.8,2.4-1.1,3.7s-0.4,2.6-0.4,3.8
		c0,1.6,0.2,2.8,0.7,3.6s1.2,1.2,2.2,1.2c0.5,0,1-0.1,1.5-0.3s1.1-0.6,1.7-1.2s1.4-1.4,2.2-2.6c0.7-1,1.3-2.1,1.7-3.1
		s0.8-2.2,1.1-3.6L313.3,92.2z"/>
	<path id="XMLID_27_" class="st0" d="M328.4,100.6c-0.2,0.8-0.3,1.4-0.3,1.7s-0.1,0.7-0.1,0.9c0,0.5,0.1,0.8,0.2,1.1
		s0.4,0.5,0.7,0.6s0.9,0.3,1.6,0.3l-0.2,1.1h-7.3l3.5-15.8c0.2-0.9,0.3-1.6,0.4-2.2s0.1-1,0.1-1.3c0-0.5-0.1-0.8-0.2-1.1
		s-0.4-0.4-0.7-0.6s-0.9-0.2-1.6-0.2l0.3-1.2l5.7-0.2h1.4L328.4,100.6z M334.2,74.9l-1.1,4.5h-4.1l1.1-4.5H334.2z"/>
	<path id="XMLID_30_" class="st0" d="M345.9,73h1.4l-6.1,27.7c-0.2,0.8-0.3,1.3-0.3,1.7s-0.1,0.7-0.1,1c0,0.5,0.1,0.8,0.2,1.1
		s0.4,0.5,0.7,0.6s0.9,0.3,1.6,0.3l-0.2,1.1h-7.3l6-26.9c0.2-0.7,0.3-1.2,0.3-1.5s0.1-0.7,0.1-1s0-0.6,0-0.8c0-0.5-0.1-0.8-0.3-1.1
		s-0.4-0.4-0.7-0.5s-0.9-0.2-1.7-0.2l0.3-1.2L345.9,73z"/>
	<path id="XMLID_32_" class="st0" d="M352.6,101l-1.2,5.4h-4.5l1.2-5.4H352.6z"/>
	<path id="XMLID_34_" class="st0" d="M361.9,105.3l-2.2,1.5l-1.5-0.4l6.1-26.8c0.1-0.4,0.2-1,0.3-1.7s0.2-1.3,0.2-1.8
		c0-0.7-0.2-1.1-0.6-1.4s-1.1-0.4-2.1-0.4l0.3-1.2l5.9-0.2h1.4l-4.1,16.4l0.3,0.1c1.5-2,2.9-3.5,4.3-4.4s2.7-1.4,4-1.4
		c1.7,0,3,0.6,4,1.9s1.4,3.1,1.4,5.5c0,1.7-0.2,3.4-0.7,5.1s-1.1,3.2-1.9,4.6c-0.8,1.4-1.7,2.5-2.7,3.4s-2.1,1.5-3.2,2
		s-2.3,0.7-3.5,0.7C365.3,106.9,363.5,106.3,361.9,105.3z M363.9,98.3c-0.2,0.7-0.3,1.3-0.3,1.8c0,0.5-0.1,1-0.1,1.4
		c0,1.2,0.3,2.1,0.8,2.7s1.4,0.8,2.7,0.8c0.8,0,1.6-0.2,2.2-0.5s1.3-0.8,1.9-1.4s1.1-1.3,1.6-2.2s0.9-1.8,1.3-2.9s0.7-2.2,0.9-3.4
		s0.3-2.3,0.3-3.3c0-1.6-0.2-2.8-0.7-3.7s-1.2-1.2-2.2-1.2c-0.8,0-1.5,0.2-2.2,0.7s-1.5,1.3-2.4,2.4s-1.6,2.2-2.2,3.4
		s-1,2.6-1.4,4.4L363.9,98.3z"/>
	<path id="XMLID_37_" class="st0" d="M403.5,106.5h-7.4l3-11.9c0.2-0.8,0.4-1.6,0.6-2.5s0.3-1.8,0.3-2.5c0-1.1-0.2-1.9-0.6-2.4
		s-1-0.7-1.8-0.7c-0.7,0-1.4,0.3-2.1,0.8s-1.6,1.3-2.4,2.3s-1.5,2-2.1,3.1s-1,2.3-1.3,3.8l-2.1,10.1h-4.1l3.6-16
		c0.1-0.4,0.2-0.9,0.3-1.6s0.2-1.3,0.2-1.8c0-0.4-0.1-0.8-0.2-1s-0.4-0.4-0.7-0.5s-0.9-0.2-1.6-0.2l0.3-1.2l5.3-0.2h1.3l-1.6,6.1
		l0.3,0.1c1.5-2.2,3-3.8,4.4-4.8s2.8-1.6,4.3-1.6c1.5,0,2.7,0.4,3.4,1.3s1.2,2.1,1.2,3.7c0,0.6-0.1,1.2-0.2,1.8s-0.2,1.3-0.3,1.8
		l-2,8.3c-0.3,1.1-0.4,2-0.4,2.7c0,0.5,0.1,0.8,0.2,1.1s0.4,0.5,0.7,0.6s0.9,0.3,1.6,0.3L403.5,106.5z"/>
	<path id="XMLID_39_" class="st0" d="M410.7,84.1h7.4l-3,11.9c-0.2,0.9-0.4,1.7-0.6,2.6s-0.2,1.7-0.2,2.4c0,1.1,0.2,1.9,0.6,2.4
		s1,0.7,1.8,0.7c0.7,0,1.4-0.3,2.2-0.8s1.6-1.3,2.5-2.4c0.9-1.1,1.6-2.1,2.1-3.1s0.9-2.2,1.2-3.5l2.1-10.2h4.1l-3.6,16
		c-0.1,0.4-0.2,1-0.3,1.7s-0.2,1.3-0.2,1.7c0,0.7,0.2,1.1,0.6,1.4s1.1,0.4,2.1,0.5l-0.3,1.1h-6.7l1.5-5.9l-0.3-0.1
		c-1.5,2.2-3,3.8-4.4,4.8s-2.8,1.6-4.3,1.6c-1.5,0-2.7-0.4-3.4-1.3s-1.2-2.1-1.2-3.7c0-0.5,0-1,0.1-1.7c0.1-0.6,0.2-1.3,0.4-2l2-8.3
		c0.2-0.7,0.3-1.2,0.3-1.6s0.1-0.8,0.1-1c0-0.7-0.2-1.2-0.6-1.5s-1-0.5-2-0.5L410.7,84.1z"/>
	<path id="XMLID_41_" class="st0" d="M438.5,101l-1.2,5.4h-4.5l1.2-5.4H438.5z"/>
	<path id="XMLID_43_" class="st0" d="M461.4,101.8c-1.2,1.3-2.3,2.3-3.3,3s-2.1,1.3-3.2,1.6s-2.2,0.5-3.5,0.5
		c-1.2,0-2.3-0.2-3.2-0.6s-1.6-0.9-2.2-1.6s-1-1.5-1.3-2.5s-0.4-2-0.4-3.1c0-1.7,0.3-3.5,0.9-5.4s1.5-3.6,2.7-5.2s2.7-2.7,4.4-3.5
		s3.5-1.3,5.4-1.3c1.9,0,3.3,0.4,4.3,1.1s1.4,2,1.4,3.6c0,2.7-1.2,4.6-3.7,6s-6.2,2-11.1,2c-0.2,0.9-0.3,2-0.3,3
		c0,1.6,0.3,2.8,1,3.6s1.7,1.1,3.1,1.1c1.4,0,2.7-0.3,3.9-0.9s2.4-1.6,3.7-2.9L461.4,101.8z M449,94.4c1.4,0,2.7-0.1,3.8-0.2
		s2-0.4,2.8-0.6s1.4-0.6,1.9-0.9s0.9-0.8,1.2-1.2s0.5-0.9,0.6-1.4s0.2-1,0.2-1.5c0-1-0.2-1.7-0.7-2.2s-1.1-0.8-2-0.8
		c-1.1,0-2.2,0.4-3.2,1.2s-2,1.9-2.8,3.2S449.4,92.7,449,94.4z"/>
	<path id="XMLID_46_" class="st0" d="M484.7,79.6c0.1-0.5,0.2-1.1,0.3-1.7s0.1-1.2,0.1-1.6s-0.1-0.8-0.3-1.1s-0.4-0.4-0.7-0.5
		s-0.9-0.2-1.7-0.2l0.3-1.2l5.9-0.2h1.4l-6.1,27c-0.2,1-0.4,1.7-0.4,2.2s-0.1,0.9-0.1,1.2c0,0.6,0.2,1.1,0.5,1.4s1,0.5,2.1,0.6
		l-0.2,1.1H479l1.5-5.9l-0.3-0.1c-1.5,2.2-2.9,3.8-4.3,4.8s-2.8,1.5-4.3,1.5c-1.7,0-3.1-0.6-4-1.9s-1.4-3.1-1.4-5.5
		c0-1.5,0.2-3,0.5-4.5s0.9-2.9,1.6-4.3s1.5-2.5,2.5-3.6s2.1-1.9,3.4-2.5s2.7-0.9,4.2-0.9c1,0,1.8,0.1,2.6,0.3s1.6,0.5,2.5,1
		L484.7,79.6z M481.8,92.2c0.2-1.1,0.4-2.2,0.4-3.2c0-1.2-0.3-2.1-0.8-2.7s-1.4-0.8-2.6-0.8c-0.7,0-1.3,0.1-1.9,0.3
		s-1.2,0.6-1.8,1.1s-1.2,1.1-1.7,1.9s-1.1,1.8-1.5,2.9s-0.8,2.4-1.1,3.7s-0.4,2.6-0.4,3.8c0,1.6,0.2,2.8,0.7,3.6s1.2,1.2,2.2,1.2
		c0.5,0,1-0.1,1.5-0.3s1.1-0.6,1.7-1.2s1.4-1.4,2.2-2.6c0.7-1,1.3-2.1,1.7-3.1s0.8-2.2,1.1-3.6L481.8,92.2z"/>
	<path id="XMLID_49_" class="st0" d="M493,84.1h7.4l-3,11.9c-0.2,0.9-0.4,1.7-0.6,2.6s-0.2,1.7-0.2,2.4c0,1.1,0.2,1.9,0.6,2.4
		s1,0.7,1.8,0.7c0.7,0,1.4-0.3,2.2-0.8s1.6-1.3,2.5-2.4c0.9-1.1,1.6-2.1,2.1-3.1s0.9-2.2,1.2-3.5l2.1-10.2h4.1l-3.6,16
		c-0.1,0.4-0.2,1-0.3,1.7s-0.2,1.3-0.2,1.7c0,0.7,0.2,1.1,0.6,1.4s1.1,0.4,2.1,0.5l-0.3,1.1h-6.7l1.5-5.9l-0.3-0.1
		c-1.5,2.2-3,3.8-4.4,4.8s-2.8,1.6-4.3,1.6c-1.5,0-2.7-0.4-3.4-1.3s-1.2-2.1-1.2-3.7c0-0.5,0-1,0.1-1.7c0.1-0.6,0.2-1.3,0.4-2l2-8.3
		c0.2-0.7,0.3-1.2,0.3-1.6s0.1-0.8,0.1-1c0-0.7-0.2-1.2-0.6-1.5s-1-0.5-2-0.5L493,84.1z"/>
	<path id="XMLID_51_" class="st0" d="M520.9,101l-1.2,5.4h-4.5l1.2-5.4H520.9z"/>
	<path id="XMLID_53_" class="st0" d="M541.9,89.7c0-1.2-0.1-2-0.3-2.6s-0.4-0.9-0.8-1.2s-0.9-0.4-1.6-0.4c-1.6,0-3,0.6-4.3,1.9
		s-2.3,3-3.1,5.3s-1.2,4.5-1.2,6.6c0,0.7,0.1,1.3,0.2,1.9s0.3,1.1,0.6,1.5s0.7,0.8,1.1,1s1.1,0.4,1.8,0.4c1.4,0,2.7-0.3,3.7-0.8
		s2.1-1.4,3.3-2.5l1.4,1.4c-1.5,1.6-2.9,2.8-4.4,3.6s-3.1,1.1-4.8,1.1c-2.3,0-4-0.7-5.2-2s-1.8-3.3-1.8-5.9c0-1.7,0.3-3.5,0.9-5.5
		s1.5-3.8,2.7-5.3s2.6-2.6,4.2-3.4s3.3-1.1,5.2-1.1c1.3,0,2.3,0.1,3.3,0.2s1.8,0.3,2.5,0.5l-1.1,5.3H541.9z"/>
	<path id="XMLID_55_" class="st0" d="M567.6,106.5h-7.4l3-11.9c0.2-0.8,0.4-1.6,0.6-2.5s0.3-1.8,0.3-2.5c0-1.1-0.2-1.9-0.6-2.4
		s-1-0.7-1.8-0.7c-0.7,0-1.4,0.3-2.1,0.8s-1.6,1.3-2.4,2.3s-1.5,2-2.1,3.1s-1,2.3-1.3,3.8l-2.1,10.1h-4.1l3.6-16
		c0.1-0.4,0.2-0.9,0.3-1.6s0.2-1.3,0.2-1.8c0-0.4-0.1-0.8-0.2-1s-0.4-0.4-0.7-0.5s-0.9-0.2-1.6-0.2l0.3-1.2l5.3-0.2h1.3l-1.6,6.1
		l0.3,0.1c1.5-2.2,3-3.8,4.4-4.8s2.8-1.6,4.3-1.6c1.5,0,2.7,0.4,3.4,1.3s1.2,2.1,1.2,3.7c0,0.6-0.1,1.2-0.2,1.8s-0.2,1.3-0.3,1.8
		l-2,8.3c-0.3,1.1-0.4,2-0.4,2.7c0,0.5,0.1,0.8,0.2,1.1s0.4,0.5,0.7,0.6s0.9,0.3,1.6,0.3L567.6,106.5z"/>
</g>
<g id="XMLID_2_">
</g>
<g id="XMLID_57_">
</g>
<g id="XMLID_58_">
</g>
<g id="XMLID_59_">
</g>
<g id="XMLID_60_">
</g>
<g id="XMLID_61_">
</g>
</svg>
